<?xml version="1.0" standalone="no"?>
<!DOCTYPE svg PUBLIC "-//W3C//DTD SVG 20010904//EN"
 "http://www.w3.org/TR/2001/REC-SVG-20010904/DTD/svg10.dtd">
<svg version="1.0" xmlns="http://www.w3.org/2000/svg"
 width="400.000000pt" height="400.000000pt" viewBox="0 0 400.000000 400.000000"
 preserveAspectRatio="xMidYMid meet">

<g transform="translate(0.000000,400.000000) scale(0.100000,-0.100000)"
fill="#000000" stroke="none">
<path d="M463 3775 c-17 -7 -39 -26 -49 -42 -10 -15 -28 -39 -40 -53 -45 -49
-57 -97 -62 -240 -5 -164 11 -247 59 -295 l29 -30 190 -3 190 -3 0 -1109 0
-1109 -159 -3 -160 -3 -30 -29 c-17 -17 -31 -35 -31 -41 0 -6 -11 -22 -25 -35
-48 -45 -60 -100 -60 -275 0 -143 2 -165 22 -207 41 -89 -24 -83 843 -86 499
-2 810 1 895 8 407 34 729 168 974 405 309 298 473 645 532 1120 15 128 15
459 0 595 -98 851 -598 1360 -1415 1439 -68 7 -409 11 -890 11 -642 -1 -787
-3 -813 -15z m1495 -705 c124 -14 207 -37 307 -85 322 -156 478 -488 479
-1015 0 -287 -35 -480 -119 -658 -90 -190 -257 -312 -500 -364 -66 -14 -150
-20 -317 -25 l-228 -6 0 1082 0 1081 148 0 c81 0 184 -4 230 -10z"/>
</g>
</svg>
